/* XPM */
static char * 1_xpm[] = {
"16 16 6 1",
" 	c #181425",
".	c #3E455D",
"+	c #2C2F4A",
"@	c #252941",
"#	c #202136",
"$	c #5A6177",
"  .+ @@@@@#  ## ",
" .$++ @@@@ .+ # ",
"..$+++ @@ .$++  ",
"$$$++++  ..$+++ ",
"@@@##### .$$+++ ",
"@@@##### @@@### ",
" @@##### @@@### ",
"+ @#####   @## .",
"++ ##### .+   .$",
"+++ ### ..++ ..$",
"++++   ...+++ $$",
"####  ...$++++ #",
"#### ....$+++++ ",
"#### ....$+++++ ",
"#### .$$$$+++++ ",
"##   @@@@@##### "};
