/* XPM */
static char * 2_xpm[] = {
"16 16 6 1",
" 	c #252941",
".	c #3E455D",
"+	c #181425",
"@	c #5A6177",
"#	c #202136",
"$	c #2C2F4A",
" ..++.....@++###",
".@..+#....@$+++ ",
"..@..+#....$++ .",
"..@..++####$+ ..",
"..@$$++++++++ ..",
".@$$+    ..++#..",
".$$+  ...@..+##.",
"$$++  ....@..+##",
"++++$$.....@..+#",
"  ++$$......@..+",
".@ +##......@$$+",
"..@$+##....@$$+.",
"..@$++###$$$$+..",
".@$++..@####+...",
".$++....@+++#...",
"$+ +.....@++#$.."};
