/* XPM */
static char * 3_xpm[] = {
"16 16 4 1",
" 	c #262B44",
".	c #181425",
"+	c #3A4466",
"@	c #5A6988",
"   ..++     @+++",
" @+++ ++   @++  ",
"@+  ++.++ @++   ",
"+    ++...@++   ",
"+     ++..@+    ",
"+      ++.++    ",
" +      +.++    ",
"  +     + +++   ",
"   +   ++@@+++  ",
"   .+++ @+++ ++ ",
"    ...@+  ++.++",
"+    ..@    ++. ",
"++   .@      ++.",
".++  +        +.",
"..++++        +.",
"+....+        ++"};
