/* XPM */
static char * door_xpm[] = {
"32 32 36 1",
" 	c #663300",
".	c #CC6633",
"+	c #FFAE4C",
"@	c #FFCC66",
"#	c #FFCC33",
"$	c #FFC054",
"%	c #FF9933",
"&	c #FFCC99",
"*	c #FCCA65",
"=	c #F3C261",
"-	c #FBAB4B",
";	c #D4A953",
">	c #715929",
",	c #A46E2D",
"'	c #F0B44E",
")	c #FBC932",
"!	c #705828",
"~	c #010100",
"{	c #120801",
"]	c #AC8136",
"^	c #FDBF53",
"/	c #FAC832",
"(	c #5F4A21",
"_	c #000000",
":	c #010000",
"<	c #805F26",
"[	c #FBBD53",
"}	c #D1A752",
"|	c #55431D",
"1	c #4D3110",
"2	c #C89640",
"3	c #FEBF54",
"4	c #F4C361",
"5	c #E59C43",
"6	c #F9BB52",
"7	c #FEAE4C",
" .+@#@@+$$%@@@+@&#@@@@+$+@@@+@@@",
" .+@#@@+$$%@@@+@&#@@@+$$+@@@+@@@",
" .+@#@@+$$%@@@+@&#@@@+$$+@@@+@@@",
" .+@#@@+$$%@@@+@&#@@@+$$+@@@+@@@",
" .+@#@@+$$%@@+@@&#@@@+$$+@@@+@@@",
" .+@#@@+$$%@@+@@&#@@@+$$+@@@+@@@",
" .+@#@@+$$%@@+@@&#@@@+$$+@@@+@@@",
" .+@#@@+$$%@@+@@&#@@@@+$+@@@+@@+",
" .+@#@@+$$%@@+@@&#@@@@+$+@@@+@@+",
" .+@#@@+$$%@@+@@&#@@@@+$+@@@+@+@",
" .+@#@@+$$%@@+@@&#@@@@+$+@@@+@+@",
" .+@#@@+$$%@@+@@&#@@@@+$+@@@+@+@",
" .+@#@@+$$%@@+@@&#@@@@+$+@@@+@+@",
" .+@#*=-$$%@@+@@&#@@@@+$+@@@+@+@",
" .+@#;>,'$%@@+@@&#@@@@+$+@@@+@+@",
" .+@)!~{]^%@@+@@&#@@@@+$+@@@+@+@",
" .+@/(_:<[%@@+@@&#@@@@+$+@@@+@+@",
" .+@#}|123%@@+@@&#@@@@+$+@@@+@+@",
" .+@#@456$%@@+@@&#@@@@+$+@@@+@+@",
" .+@#@@7$$%@@+@@&#@@@@+$+@@+@@+@",
" .+@#@@+$$%@@+@@&#@@@@+$+@@+@@+@",
" .+@#@@+$$%@@+@@&#@@@@+$$+@+@@+@",
" .+@#@@+$$%@@+@@&#@@@@+$$+@+@@+@",
" .+@#@@+$$%@@+@@&#@@@@+$$+@+@@+@",
" .+@#@@+$$%@@+@@&#@@@@+$$+@+@@+@",
" .+@#@@+$$%@@+@@&#@@@@+$$+@+@@+@",
" .+@#@@+$$%@@+@@&#@@@@+$$+@+@@+@",
" .+@#@@+$$%@@+@@&#@@@+$$$+@+@@+@",
" .+@#@@+$$%@@+@@&#@@@+$$$+@+@@+@",
" .+@#@+$$$%@@+@@&#@@@+$$+@@+@@+@",
" .+@#@+$$$%@@+@@&#@@@+$$+@@+@@+@",
" .+@#@+$$$%@@+@@&#@@@+$$+@@+@@+@"};
